<?xml version="1.0" encoding="UTF-8"?>
<svg width="16px" height="16px" viewBox="0 0 16 16" version="1.1" xmlns="http://www.w3.org/2000/svg" xmlns:xlink="http://www.w3.org/1999/xlink">
    <!-- Generator: Sketch 47.1 (45422) - http://www.bohemiancoding.com/sketch -->
    <title>no data icon</title>
    <desc>Created with Sketch.</desc>
    <defs></defs>
    <g id="Components" stroke="none" stroke-width="1" fill="none" fill-rule="evenodd">
        <g id="Compliance-Tables" transform="translate(-350.000000, -675.000000)" fill="#C5C1C0">
            <g id="Group-3" transform="translate(32.000000, 168.000000)">
                <path d="M331.666667,514.994809 C331.666667,513.863076 331.333333,512.814406 330.760417,511.931862 L322.90625,519.750162 C323.802083,520.331603 324.864583,520.674238 326,520.674238 C329.125,520.674238 331.666667,518.130435 331.666667,514.994809 Z M321.260417,518.099286 L329.125,510.270604 C328.229167,509.668397 327.15625,509.325762 326,509.325762 C322.875,509.325762 320.333333,511.869565 320.333333,514.994809 C320.333333,516.147307 320.677083,517.20636 321.260417,518.099286 Z M334,514.994809 C334,519.41791 330.416667,523 326,523 C321.583333,523 318,519.41791 318,514.994809 C318,510.58209 321.583333,507 326,507 C330.416667,507 334,510.58209 334,514.994809 Z" id="no-data-icon"></path>
            </g>
        </g>
    </g>
</svg>