<?xml version="1.0" encoding="UTF-8"?>
<svg width="13px" height="13px" viewBox="0 0 13 13" version="1.1" xmlns="http://www.w3.org/2000/svg" xmlns:xlink="http://www.w3.org/1999/xlink">
<!-- Generator: Sketch 47.1 (45422) - http://www.bohemiancoding.com/sketch -->
<title>search icon</title>
<desc>Created with Sketch.</desc>
<defs></defs>
<g id="Components" stroke="none" stroke-width="1" fill="none" fill-rule="evenodd" opacity="0.5">
<g transform="translate(-694.000000, -455.000000)" id="Search-Copy" fill="#3C4552">
<g transform="translate(681.000000, 446.000000)">
<path d="M22.0000107,14.5000066 C22.0000107,12.5703168 20.4296964,11.0000024 18.5000066,11.0000024 C16.5703168,11.0000024 15.0000024,12.5703168 15.0000024,14.5000066 C15.0000024,16.4296964 16.5703168,18.0000107 18.5000066,18.0000107 C20.4296964,18.0000107 22.0000107,16.4296964 22.0000107,14.5000066 Z M26.0000155,21.0000143 C26.0000155,21.54689 25.54689,22.0000155 25.0000143,22.0000155 C24.734389,22.0000155 24.4765762,21.8906404 24.2968885,21.7031401 L21.6171978,19.031262 C20.7031342,19.6640752 19.6093829,20.0000131 18.5000066,20.0000131 C15.4609404,20.0000131 13,17.5390727 13,14.5000066 C13,11.4609404 15.4609404,9 18.5000066,9 C21.5390727,9 24.0000131,11.4609404 24.0000131,14.5000066 C24.0000131,15.6093829 23.6640752,16.7031342 23.031262,17.6171978 L25.7109527,20.2968885 C25.8906404,20.4765762 26.0000155,20.734389 26.0000155,21.0000143 Z" id="search-icon"></path>
</g>
</g>
</g>
</svg>
